<svg xmlns="http://www.w3.org/2000/svg" width="24" height="24" viewBox="0 0 24 24"><defs><style>.a{fill:none;}.b{fill:#556575;opacity:0.3;}</style></defs><g transform="translate(-12.216 -12.675)"><rect class="a" width="24" height="24" transform="translate(12.216 12.675)"/><path class="b" d="M624.626,318h.27a2.461,2.461,0,0,1,.741.279q3.808,2.187,7.616,4.373a2.516,2.516,0,0,1,.509.383.961.961,0,0,1,.066,1.374,1.994,1.994,0,0,1-.577.458q-3.8,2.182-7.61,4.361a2.561,2.561,0,0,1-.588.244.974.974,0,0,1-1.227-.63,2.083,2.083,0,0,1-.114-.762q0-4.323,0-8.646a3.022,3.022,0,0,1,.017-.348,1.318,1.318,0,0,1,.369-.835A1.075,1.075,0,0,1,624.626,318Z" transform="translate(-603.737 -299.418)"/></g></svg>